<?xml version="1.0" standalone="no"?>
<!DOCTYPE svg PUBLIC "-//W3C//DTD SVG 20010904//EN"
 "http://www.w3.org/TR/2001/REC-SVG-20010904/DTD/svg10.dtd">
<svg version="1.0" xmlns="http://www.w3.org/2000/svg"
 width="2474.000000pt" height="416.000000pt" viewBox="0 0 2474.000000 416.000000"
 preserveAspectRatio="xMidYMid meet">

<g transform="translate(0.000000,416.000000) scale(0.100000,-0.100000)"
fill="#000000" stroke="none">
<path d="M21236 4128 c-8 -41 -120 -130 -198 -157 -56 -20 -317 -129 -786
-330 -156 -67 -287 -121 -293 -121 -5 0 -46 18 -91 41 -89 45 -124 49 -183 24
-22 -9 -86 -27 -142 -41 -124 -29 -514 -191 -552 -229 -23 -22 -26 -35 -29
-104 -5 -110 15 -177 69 -226 42 -37 296 -165 330 -165 10 0 130 56 268 124
l249 124 31 -32 31 -32 -92 -42 c-124 -57 -231 -131 -253 -178 -12 -26 -18
-73 -22 -174 l-6 -138 -58 -11 c-31 -7 -107 -36 -168 -66 l-110 -54 -53 23
c-116 51 -226 58 -332 21 -28 -9 -133 -56 -235 -104 -217 -102 -231 -115 -231
-213 0 -52 52 -563 80 -783 21 -162 97 -267 279 -382 58 -37 167 -107 241
-157 74 -49 224 -147 334 -218 272 -175 267 -175 430 15 120 138 119 137 124
372 2 110 8 204 12 209 5 5 86 -35 187 -92 98 -55 193 -107 212 -117 64 -32
105 -19 361 118 883 473 995 535 1017 566 17 25 23 53 28 131 l7 99 57 33 c69
41 96 89 106 189 7 65 11 75 45 109 62 62 63 74 50 585 -7 247 -16 468 -22
490 -14 57 -63 98 -219 184 -122 68 -140 75 -201 79 -61 4 -67 6 -58 22 5 10
41 41 80 69 l70 51 92 0 c120 0 158 11 201 60 96 105 74 296 -48 415 -45 43
-49 45 -106 45 -32 0 -59 -2 -59 -4 0 -2 20 -16 44 -30 63 -37 132 -117 152
-178 27 -83 5 -188 -49 -222 -13 -8 -56 -16 -107 -18 l-85 -3 -6 60 c-17 161
-133 311 -269 346 -37 9 -50 18 -50 31 0 14 -8 18 -34 18 -30 0 -34 -3 -40
-32z m129 -87 c85 -38 149 -115 184 -219 34 -99 30 -115 -36 -167 -32 -25 -63
-45 -68 -45 -6 0 -42 63 -80 141 l-70 141 -69 35 -68 35 67 49 c37 27 75 49
84 49 9 0 34 -9 56 -19z m-230 -143 c25 -12 45 -25 45 -28 0 -3 -138 -66 -307
-140 -170 -74 -407 -178 -528 -231 l-220 -97 -19 22 c-10 11 -30 29 -44 38
l-25 16 34 15 c19 8 171 73 339 145 494 211 660 280 672 281 4 1 28 -9 53 -21z
m189 -212 l68 -133 -26 -51 c-14 -28 -37 -84 -50 -124 -23 -68 -28 -75 -68
-94 -24 -12 -44 -21 -45 -20 -1 1 14 60 33 131 52 195 47 242 -30 299 -54 41
-82 32 -506 -149 -414 -177 -457 -202 -487 -272 -16 -40 -17 -123 -1 -158 6
-14 59 -65 117 -112 58 -47 107 -89 109 -93 2 -4 -18 -16 -44 -26 l-47 -18
-51 59 c-28 33 -86 97 -128 143 -43 47 -78 89 -78 94 0 5 10 22 21 38 13 17
24 51 28 86 l6 57 470 204 c259 112 504 219 545 237 41 19 80 35 85 35 6 1 41
-59 79 -133z m-139 -61 c14 -13 25 -33 25 -45 0 -28 -79 -343 -89 -352 -6 -7
-600 -288 -607 -288 -8 0 -204 161 -204 168 0 4 136 72 302 152 166 79 313
154 326 165 13 11 35 55 51 100 26 75 31 81 72 102 58 29 94 29 124 -2z m-247
-62 c-2 -5 -10 -25 -18 -47 -14 -36 -24 -43 -180 -121 -180 -90 -464 -225
-474 -225 -15 0 -4 60 17 91 27 42 94 76 407 209 233 99 255 107 248 93z
m-1050 -83 c69 -33 134 -68 144 -77 29 -26 49 -107 36 -144 -9 -27 -39 -45
-308 -179 l-298 -148 -6 36 c-3 21 -6 51 -6 67 0 17 -11 53 -24 82 -26 55 -70
94 -144 127 -23 11 -42 22 -42 25 0 3 81 42 180 85 99 43 180 82 180 86 0 4
-7 13 -15 20 -9 7 -13 15 -10 18 5 5 163 59 179 61 4 1 65 -26 134 -59z m-520
-80 c-87 -38 -169 -77 -182 -86 -17 -10 -30 -13 -41 -7 -17 10 67 51 245 121
100 39 103 40 120 41 8 0 -56 -31 -142 -69z m2322 -48 l144 -81 -59 -25 -58
-26 -42 39 c-23 21 -79 59 -126 85 -117 66 -128 74 -109 87 37 25 103 4 250
-79z m-202 -48 c53 -31 100 -59 104 -63 4 -4 -23 -20 -60 -35 -37 -16 -168
-76 -292 -132 -124 -57 -404 -186 -624 -286 l-398 -183 -229 115 c-126 63
-229 117 -229 120 0 7 207 110 221 110 6 0 24 -11 39 -23 39 -33 271 -127 313
-127 21 0 78 20 143 51 60 28 254 118 431 200 462 213 440 201 454 251 12 45
17 58 25 58 2 0 48 -25 102 -56z m-2298 -89 c71 -35 140 -77 154 -91 28 -31
46 -92 46 -158 0 -57 -8 -76 -31 -76 -25 0 -258 116 -287 143 -56 52 -72 247
-20 247 5 0 66 -29 138 -65z m2684 -207 c4 -112 8 -330 9 -485 2 -247 0 -284
-14 -298 -15 -15 -17 -3 -23 142 -10 230 -35 632 -42 672 -3 19 -15 54 -26 78
-11 24 -19 46 -16 48 5 5 91 43 99 44 4 1 10 -90 13 -201z m-163 86 c31 -62
31 -62 50 -385 11 -178 21 -415 22 -527 l2 -203 -35 -31 c-31 -27 -389 -218
-1065 -570 l-200 -104 -7 101 c-3 55 -18 183 -33 285 -14 102 -41 309 -60 460
-34 272 -35 276 -75 354 -22 44 -38 81 -37 83 3 3 321 149 942 433 160 72 322
147 360 165 83 38 88 36 136 -61z m-1645 -6 c22 -26 68 -79 102 -118 l64 -70
-66 25 c-37 14 -69 25 -72 25 -4 0 -39 32 -80 72 l-74 71 37 23 c21 12 41 21
44 21 4 -1 24 -23 45 -49z m-127 -414 c124 -64 239 -128 254 -142 16 -15 44
-58 62 -97 30 -60 37 -92 54 -225 10 -85 18 -156 16 -158 -1 -1 -19 26 -39 60
-137 235 -404 407 -595 383 l-53 -7 3 130 c3 111 7 133 23 151 11 12 26 21 34
21 9 0 117 -52 241 -116z m-91 -265 c271 -91 509 -436 490 -707 -7 -96 -66
-218 -122 -256 l-23 -14 10 56 c11 72 2 237 -18 321 -55 226 -206 447 -393
572 -72 48 -73 49 -40 49 19 0 62 -9 96 -21z m-212 -24 c110 -33 247 -142 339
-270 195 -273 230 -683 70 -823 -32 -29 -95 -68 -95 -59 0 2 10 30 22 63 31
84 31 312 0 426 -79 291 -265 519 -496 609 l-71 28 30 11 c85 34 127 37 201
15z m-456 -97 c124 -61 298 -175 358 -235 109 -109 200 -310 237 -523 20 -121
38 -518 30 -675 -8 -140 -22 -178 -90 -245 l-45 -44 0 47 c0 26 -5 217 -10
424 -12 422 -14 435 -83 542 -51 78 -34 67 -571 371 -228 129 -415 238 -416
241 0 8 227 117 281 134 28 10 75 14 129 12 79 -3 93 -7 180 -49z m328 -43
c202 -106 352 -320 407 -580 17 -82 20 -252 4 -310 -17 -66 -41 -125 -50 -125
-5 0 -9 38 -9 84 0 210 -49 415 -142 598 -64 126 -138 206 -281 303 l-112 77
57 -5 c39 -4 80 -17 126 -42z m-630 -296 c522 -298 575 -329 605 -357 16 -15
45 -60 65 -100 36 -73 36 -75 39 -220 2 -81 8 -283 13 -448 7 -193 7 -311 1
-327 -13 -33 -43 -42 -78 -23 -47 24 -846 547 -870 569 -13 11 -23 23 -23 26
0 3 53 24 117 46 138 47 160 61 140 89 -13 18 -17 17 -123 -19 -153 -53 -170
-56 -188 -36 -9 9 -23 37 -31 61 -18 50 -94 696 -98 828 -2 73 0 85 18 98 12
9 31 13 48 10 15 -3 179 -92 365 -197z m2742 -218 c0 -33 -4 -70 -9 -83 -7
-17 -141 -94 -547 -313 -297 -159 -566 -304 -599 -322 l-60 -33 -15 83 -15 82
200 103 c339 176 753 392 895 469 74 39 138 72 143 73 4 0 7 -27 7 -59z
m-1214 -284 c20 -164 13 -207 -37 -227 -24 -10 -38 -10 -69 0 -51 17 -152 73
-154 85 0 5 32 34 72 65 80 60 121 108 149 175 10 24 19 43 20 42 1 -1 9 -64
19 -140z m-224 -245 c40 -21 87 -43 104 -49 31 -11 32 -14 40 -85 5 -40 8 -77
9 -83 0 -23 -55 0 -205 87 -88 50 -158 93 -156 95 12 12 113 71 123 72 7 1 45
-16 85 -37z"/>
<path d="M19584 3320 c-89 -43 -164 -83 -168 -88 -3 -5 2 -19 12 -31 17 -20
17 -20 179 58 90 43 173 77 185 77 34 -1 36 37 3 52 -14 7 -31 12 -38 11 -7 0
-85 -36 -173 -79z"/>
<path d="M21432 2695 c-87 -45 -133 -124 -134 -231 -1 -169 140 -234 266 -123
60 53 89 116 90 193 2 147 -101 222 -222 161z m93 -119 c37 -56 26 -120 -27
-159 -38 -28 -73 -12 -89 42 -14 48 -6 85 26 117 31 31 70 31 90 0z"/>
<path d="M21130 2513 c-12 -4 -166 -90 -179 -99 -4 -3 78 -364 85 -376 4 -7
90 38 99 52 2 4 -2 33 -11 65 -8 32 -13 62 -11 68 1 5 24 -14 50 -42 l48 -51
37 19 c83 43 84 44 23 98 l-54 48 22 35 c36 59 21 166 -24 184 -19 7 -64 7
-85 -1z m30 -138 c0 -19 -33 -53 -54 -57 -14 -2 -21 5 -27 25 -7 25 -4 31 24
47 32 20 57 13 57 -15z"/>
<path d="M20768 2307 c-100 -53 -128 -71 -128 -82 0 -12 81 -369 86 -373 2 -3
80 38 102 54 2 1 -4 30 -13 64 -9 34 -15 63 -13 64 2 2 20 13 40 25 102 61
138 192 72 258 -32 32 -71 29 -146 -10z m69 -129 c-6 -22 -52 -58 -61 -47 -2
2 -6 19 -9 36 -6 28 -3 35 21 47 34 18 58 1 49 -36z"/>
<path d="M18870 1870 c-15 -15 -20 -33 -20 -71 0 -101 31 -525 41 -556 21 -68
64 -108 211 -200 78 -50 190 -120 247 -157 165 -104 181 -95 181 105 -1 185
-17 446 -30 492 -6 21 -25 53 -41 72 -44 50 -514 335 -552 335 -9 0 -26 -9
-37 -20z m102 -74 l47 -28 -19 -26 c-28 -38 -34 -124 -21 -270 12 -136 36
-218 79 -272 15 -19 88 -75 162 -125 131 -87 137 -90 193 -90 l57 0 0 -47 c0
-27 -3 -48 -6 -48 -3 0 -65 38 -138 84 -72 46 -172 109 -222 140 -100 61 -149
108 -158 153 -7 34 -36 447 -36 515 0 27 3 47 8 45 4 -2 28 -16 54 -31z m196
-121 c1 -1 -5 -18 -13 -38 -67 -160 109 -457 270 -457 l35 0 0 -51 c0 -113
-34 -116 -190 -17 -195 123 -213 152 -231 378 -12 142 -8 193 16 220 17 19 19
19 64 -7 25 -15 47 -27 49 -28z m152 -89 c115 -71 132 -101 138 -248 4 -105 4
-108 -17 -108 -134 0 -282 249 -236 398 7 20 26 13 115 -42z"/>
<path d="M22823 4139 c-5 -19 -11 -21 -57 -15 -281 34 -304 33 -332 -9 -16
-25 -144 -743 -145 -819 -1 -32 4 -45 28 -67 25 -22 49 -29 144 -43 196 -29
176 -21 182 -79 4 -42 10 -56 39 -81 19 -17 42 -35 51 -41 16 -9 13 -25 -38
-175 -30 -90 -55 -173 -55 -183 0 -11 7 -33 15 -51 12 -25 49 -51 191 -131
200 -113 181 -84 153 -233 -9 -48 -10 -78 -4 -88 6 -9 49 -38 96 -65 l86 -50
69 16 c121 27 133 33 142 68 5 18 12 31 16 31 4 -1 57 -29 117 -63 123 -68
162 -75 197 -39 11 13 46 92 77 177 30 85 57 156 58 158 2 1 19 -3 40 -9 30
-9 44 -8 83 7 l47 18 19 -24 c43 -56 58 -69 77 -69 35 0 59 34 66 92 6 49 10
56 43 73 49 27 78 72 90 142 6 32 47 261 92 508 49 270 79 462 75 480 -13 68
-46 97 -194 175 l-141 75 2 90 c4 116 -8 134 -130 198 -82 43 -95 47 -158 47
l-69 0 139 -74 c76 -40 143 -81 148 -90 7 -12 6 -75 -2 -187 -7 -93 -14 -169
-15 -169 -1 0 -72 37 -156 83 -85 46 -306 163 -491 261 l-337 177 -64 -3 -64
-3 380 -200 c621 -326 771 -407 790 -423 9 -8 17 -27 17 -40 0 -25 -88 -521
-156 -882 -19 -102 -39 -189 -45 -195 -6 -6 -19 -5 -38 2 -39 14 -1151 632
-1175 652 -25 22 -21 60 47 426 72 387 117 641 117 654 0 6 -14 11 -31 11 -23
0 -32 -5 -36 -21z m-148 -67 c72 -10 130 -22 130 -27 -1 -42 -145 -809 -153
-816 -11 -9 -280 35 -294 49 -9 9 3 98 52 389 35 208 67 388 72 401 9 27 18
27 193 4z m1596 -383 c66 -34 119 -65 119 -68 0 -3 -44 -20 -98 -37 l-97 -31
-32 26 c-20 16 -32 35 -32 52 -1 35 11 119 17 119 2 0 58 -28 123 -61z m149
-150 c0 -41 -168 -967 -182 -1001 -9 -25 -28 -39 -28 -22 0 3 18 104 40 223
90 493 91 499 75 538 -8 19 -37 61 -65 93 -39 45 -50 65 -50 92 l0 35 98 36
c53 20 100 36 105 36 4 1 7 -13 7 -30z m-159 -277 c10 -18 8 -48 -14 -170
-106 -598 -129 -727 -131 -730 -2 -1 -22 23 -45 53 l-43 56 15 87 c38 214 139
768 143 781 5 15 50 -31 75 -77z m-1123 -503 c169 -94 385 -215 479 -268 95
-53 173 -100 173 -106 0 -19 -104 -300 -116 -314 -10 -11 -39 1 -176 77 -429
240 -772 439 -784 457 -11 17 -5 43 39 178 36 113 55 156 64 153 8 -3 152 -83
321 -177z m59 -513 c2 -2 -29 -150 -32 -154 -2 -2 -28 12 -58 31 l-54 35 15
76 15 76 56 -32 c31 -17 57 -32 58 -32z m103 -61 c59 -37 53 -65 -19 -85 -23
-6 -44 -10 -46 -8 -4 4 17 118 22 118 2 0 21 -11 43 -25z"/>
<path d="M22937 4067 c-13 -9 -32 -91 -78 -342 -95 -522 -102 -571 -87 -602 8
-16 40 -42 78 -64 393 -221 998 -551 1020 -556 22 -4 34 1 52 18 21 21 33 75
102 459 43 239 79 445 79 457 0 38 -27 66 -104 109 -326 181 -1001 534 -1021
534 -13 0 -32 -6 -41 -13z m553 -322 c245 -130 469 -251 498 -267 l53 -30 -6
-42 c-4 -22 -29 -160 -55 -306 -27 -146 -59 -321 -71 -390 -12 -69 -24 -130
-28 -136 -3 -6 -215 106 -528 280 -439 243 -523 293 -523 312 0 11 20 131 44
265 24 134 56 312 70 394 15 83 29 160 32 173 l5 23 32 -19 c18 -11 232 -127
477 -257z"/>
<path d="M23004 3925 c-16 -42 31 -95 85 -95 47 0 38 58 -15 89 -42 25 -62 27
-70 6z"/>
<path d="M23177 3821 c-11 -43 75 -108 108 -81 8 7 15 18 15 26 0 25 -45 65
-81 70 -31 5 -37 3 -42 -15z"/>
<path d="M22978 3775 c-10 -22 -8 -29 12 -50 25 -27 72 -46 87 -36 27 18 23
44 -13 77 -42 41 -70 43 -86 9z"/>
<path d="M23360 3730 c-14 -26 1 -55 40 -75 40 -21 67 -19 75 5 9 28 -9 55
-49 74 -44 21 -53 20 -66 -4z"/>
<path d="M23165 3696 c-26 -19 -12 -62 28 -86 48 -30 72 -23 72 20 0 30 -5 37
-41 57 -35 19 -43 21 -59 9z"/>
<path d="M22960 3645 c-22 -27 -3 -65 43 -85 31 -14 45 -16 55 -8 23 19 10 61
-27 85 -40 27 -54 28 -71 8z"/>
<path d="M23541 3631 c-21 -39 70 -109 104 -81 24 20 17 47 -18 74 -40 31 -72
33 -86 7z"/>
<path d="M23334 3595 c-12 -31 5 -62 45 -80 47 -21 71 -15 71 17 0 31 -9 42
-47 62 -40 20 -62 20 -69 1z"/>
<path d="M23134 3546 c-10 -27 1 -50 35 -73 57 -38 91 -25 77 30 -10 42 -99
76 -112 43z"/>
<path d="M23720 3545 c-17 -21 -3 -54 33 -76 41 -24 74 -24 82 0 8 27 -3 48
-40 71 -38 24 -58 25 -75 5z"/>
<path d="M22937 3513 c-4 -3 -7 -19 -7 -35 0 -21 8 -33 33 -48 56 -35 95 -23
83 25 -9 37 -88 79 -109 58z"/>
<path d="M23515 3490 c-9 -28 9 -55 49 -74 44 -21 53 -20 66 4 14 26 -1 55
-40 75 -40 21 -67 19 -75 -5z"/>
<path d="M23314 3456 c-13 -34 2 -61 44 -85 39 -21 45 -22 59 -8 23 23 9 62
-31 86 -39 24 -64 27 -72 7z"/>
<path d="M23905 3453 c-9 -9 -14 -22 -11 -30 3 -8 6 -19 6 -24 0 -5 21 -19 46
-32 45 -21 46 -22 60 -3 18 25 18 28 -6 59 -28 36 -75 51 -95 30z"/>
<path d="M23105 3400 c-8 -26 10 -57 45 -75 40 -21 67 -19 75 5 8 26 -10 57
-45 75 -40 21 -67 19 -75 -5z"/>
<path d="M23702 3408 c-20 -20 -14 -45 19 -73 44 -36 84 -32 84 10 0 22 -8 35
-34 52 -38 26 -52 28 -69 11z"/>
<path d="M22910 3360 c-20 -37 28 -90 81 -90 53 0 40 66 -17 94 -44 21 -51 20
-64 -4z"/>
<path d="M23487 3348 c-9 -31 6 -52 52 -73 33 -14 43 -15 56 -5 24 20 18 47
-18 74 -42 33 -82 34 -90 4z"/>
<path d="M23288 3305 c-10 -22 -8 -29 12 -50 33 -35 76 -48 95 -29 19 19 19
24 -1 52 -15 22 -63 52 -84 52 -6 0 -16 -11 -22 -25z"/>
<path d="M23874 3306 c-10 -27 1 -50 35 -73 57 -38 91 -25 77 30 -10 42 -99
76 -112 43z"/>
<path d="M23083 3264 c-15 -39 60 -106 101 -91 16 7 21 44 8 63 -27 39 -97 57
-109 28z"/>
<path d="M23670 3260 c-8 -14 -8 -26 0 -40 12 -23 60 -50 89 -50 50 0 37 61
-19 90 -49 25 -57 25 -70 0z"/>
<path d="M22885 3220 c-10 -31 4 -59 36 -76 46 -23 74 -15 74 21 0 22 -8 35
-34 52 -42 28 -68 29 -76 3z"/>
<path d="M23464 3216 c-10 -27 1 -50 36 -74 47 -31 74 -26 78 15 3 28 -2 36
-30 53 -39 23 -76 26 -84 6z"/>
<path d="M23270 3175 c-21 -25 -3 -63 41 -85 46 -24 69 -15 69 26 0 40 -86 87
-110 59z"/>
<path d="M23854 3165 c-12 -31 5 -62 46 -80 33 -15 42 -16 55 -5 24 20 14 52
-24 77 -39 27 -69 30 -77 8z"/>
<path d="M23060 3111 c0 -20 9 -36 27 -50 54 -43 97 -36 91 14 -4 24 -63 65
-94 65 -20 0 -24 -5 -24 -29z"/>
<path d="M23650 3125 c-30 -36 28 -101 83 -93 17 2 22 10 22 33 0 22 -8 35
-34 52 -40 27 -54 28 -71 8z"/>
<path d="M23444 3076 c-17 -43 42 -104 91 -95 30 6 31 50 2 77 -31 29 -85 40
-93 18z"/>
<path d="M23247 3043 c-4 -3 -7 -19 -7 -34 0 -43 73 -88 106 -65 28 21 11 62
-36 86 -42 21 -53 24 -63 13z"/>
<path d="M23824 3026 c-10 -27 1 -50 35 -73 58 -39 91 -25 77 32 -11 42 -99
74 -112 41z"/>
<path d="M23627 2993 c-13 -13 -7 -60 11 -76 32 -29 74 -40 90 -23 23 23 7 59
-37 84 -41 23 -53 26 -64 15z"/>
<path d="M23420 2935 c-17 -21 -3 -54 33 -76 41 -24 74 -24 82 0 8 27 -3 48
-40 71 -38 24 -58 25 -75 5z"/>
<path d="M23800 2885 c-17 -21 -3 -54 33 -76 42 -25 73 -25 80 2 8 30 -1 46
-38 69 -38 24 -58 25 -75 5z"/>
<path d="M23600 2840 c-17 -31 -3 -58 40 -80 49 -25 57 -25 70 0 14 26 -1 55
-43 80 -41 25 -54 25 -67 0z"/>
<path d="M23774 2745 c-17 -44 37 -100 89 -93 17 2 22 10 22 33 0 48 -96 100
-111 60z"/>
<path d="M18160 3811 c-14 -5 -49 -20 -79 -36 -52 -26 -58 -27 -106 -15 -29 7
-83 11 -122 8 -60 -3 -85 -11 -179 -57 -60 -29 -130 -59 -156 -67 -82 -25
-888 -430 -923 -464 -18 -18 -45 -59 -60 -92 -130 -289 84 -791 436 -1028 109
-73 200 -105 294 -104 87 0 122 15 291 126 71 46 200 129 287 184 341 214 554
353 591 385 35 30 96 135 96 165 0 6 31 32 69 57 80 53 112 92 136 162 9 28
23 57 30 65 25 28 45 101 45 164 0 138 -71 297 -185 412 -93 93 -157 125 -251
124 -38 -1 -85 3 -104 9 -39 12 -73 13 -110 2z m161 -83 c106 -48 223 -180
293 -329 47 -98 66 -177 66 -268 0 -97 -23 -148 -88 -190 l-47 -30 -11 102
c-7 56 -22 131 -33 166 -69 202 -207 392 -366 501 l-49 34 49 23 c61 29 109
26 186 -9z m203 -37 c81 -56 163 -170 203 -281 24 -69 34 -228 13 -215 -5 3
-10 18 -10 33 -1 45 -52 182 -100 267 -26 47 -78 114 -124 163 -83 86 -77 98
18 33z m-579 14 c125 -33 281 -155 375 -294 51 -77 123 -228 139 -293 13 -57
13 -97 0 -48 -22 77 -63 173 -87 201 -29 36 -52 34 -117 -10 -48 -32 -55 -62
-27 -118 31 -60 60 -166 72 -255 12 -101 26 -119 72 -95 18 9 47 25 65 37 l32
21 -11 -38 c-14 -54 -32 -84 -65 -114 -32 -29 -133 -92 -139 -86 -2 2 1 19 6
38 15 51 12 208 -5 290 -59 279 -294 577 -532 674 l-57 23 65 32 c107 55 125
58 214 35z m-488 -171 c-48 -25 -93 -43 -100 -41 -15 5 141 86 168 86 11 1
-20 -20 -68 -45z m217 37 c28 -11 -180 -123 -212 -114 -12 3 -22 8 -22 12 0 7
190 109 205 109 6 0 19 -3 29 -7z m124 -66 c-1 -1 -49 -28 -105 -59 -92 -51
-104 -55 -128 -44 -14 6 -24 15 -23 20 2 5 48 33 103 62 96 52 101 53 128 39
16 -8 27 -16 25 -18z m95 -76 c-5 -4 -54 -33 -111 -65 l-103 -57 -25 25 -25
25 108 60 108 60 28 -21 c15 -11 24 -23 20 -27z m-518 -4 c87 -23 168 -71 250
-147 164 -153 279 -362 316 -575 22 -127 -5 -268 -63 -330 -24 -26 -147 -108
-152 -102 -3 2 0 24 4 49 71 366 -254 910 -608 1020 l-56 18 64 32 c108 55
146 60 245 35z m590 -55 c24 -27 18 -32 -106 -98 l-96 -51 -23 24 c-13 14 -22
27 -19 29 13 11 206 116 215 116 6 0 19 -9 29 -20z m-794 -113 c319 -154 574
-645 494 -951 -16 -61 -43 -116 -58 -116 -4 0 -2 10 5 23 9 15 13 67 13 167 0
166 -14 227 -90 385 -122 253 -299 431 -509 512 l-61 24 66 -4 c50 -4 85 -13
140 -40z m870 17 c13 -15 20 -28 14 -31 -5 -2 -57 -30 -115 -62 l-105 -59 -19
29 c-10 17 -17 31 -15 33 11 8 205 116 210 116 3 0 16 -12 30 -26z m-1007 -61
c316 -133 587 -588 537 -903 l-9 -55 -1 53 c-4 186 -78 397 -200 568 -124 176
-265 292 -436 356 l-50 19 50 -7 c28 -3 77 -17 109 -31z m1343 -44 c32 -74 69
-248 59 -275 -5 -13 -63 -54 -77 -54 -4 0 -10 28 -13 63 -4 35 -23 108 -42
163 -52 147 -51 140 -13 163 19 12 39 19 44 18 6 -2 24 -37 42 -78z m-261 -26
c-2 -2 -53 -31 -112 -64 -82 -46 -109 -57 -116 -47 -23 34 -30 52 -22 55 5 2
56 29 114 62 l105 58 18 -30 c10 -16 16 -31 13 -34z m-1248 42 c269 -64 552
-395 618 -724 37 -188 0 -341 -98 -407 -83 -56 -177 -52 -313 15 -215 106
-412 357 -491 626 -36 125 -39 276 -5 351 30 70 88 124 148 140 62 16 66 16
141 -1z m1290 -123 c10 -29 9 -29 -101 -91 -120 -68 -124 -68 -131 -1 -1 12
205 130 215 124 4 -2 11 -17 17 -32z m37 -113 c4 -17 4 -33 1 -37 -4 -3 -52
-32 -109 -64 l-102 -58 -12 28 c-7 15 -12 32 -12 37 0 11 196 124 216 125 6 0
14 -14 18 -31z m12 -153 c-5 -13 -197 -130 -202 -124 -2 2 -5 18 -7 36 -3 33
-1 35 102 93 l105 58 3 -25 c2 -14 1 -31 -1 -38z m-22 -141 c-14 -11 -60 -39
-101 -62 l-74 -42 0 33 c0 32 5 37 98 89 l97 56 3 -27 c3 -20 -3 -32 -23 -47z
m-15 -84 c-14 -27 -80 -81 -139 -114 l-50 -28 10 31 c8 23 31 41 97 79 48 28
88 50 90 50 1 1 -2 -8 -8 -18z"/>
<path d="M16746 3125 c-51 -18 -91 -58 -124 -125 -68 -137 -10 -403 131 -610
87 -126 241 -256 353 -296 76 -27 179 -25 232 6 209 119 130 570 -149 849 -84
85 -161 135 -258 168 -75 26 -129 28 -185 8z m72 -90 c-59 -109 -45 -270 37
-441 40 -83 132 -202 194 -252 98 -79 227 -123 302 -104 21 5 39 8 39 6 0 -1
-5 -15 -12 -29 -14 -31 -43 -40 -111 -31 -162 19 -377 223 -472 446 -79 185
-87 369 -20 436 13 13 35 24 49 24 l24 0 -30 -55z m191 -7 c69 -40 181 -145
236 -223 85 -120 136 -244 156 -380 13 -95 6 -121 -37 -135 -101 -34 -257 42
-371 179 -158 191 -212 471 -110 579 26 28 48 24 126 -20z m-327 -98 c-8 -143
36 -290 134 -446 111 -177 265 -309 402 -344 33 -9 31 -9 -24 -6 -258 16 -558
423 -542 735 4 68 21 141 33 141 1 0 0 -36 -3 -80z"/>
<path d="M16958 2973 c-43 -45 -62 -100 -60 -178 1 -86 27 -163 80 -243 79
-115 175 -176 283 -177 71 0 108 17 89 40 -8 9 -29 11 -69 8 -74 -7 -131 17
-206 88 -61 58 -107 140 -126 225 -16 71 -1 151 37 201 23 30 25 37 12 49 -12
12 -18 11 -40 -13z"/>
<path d="M24364 2022 c-73 -51 -577 -413 -728 -523 -48 -35 -107 -77 -130 -93
-66 -46 -216 -154 -416 -298 -201 -145 -213 -159 -193 -226 24 -80 135 -368
148 -382 7 -8 52 -124 101 -257 l88 -243 33 0 c18 0 33 2 33 4 0 2 -36 104
-81 227 -44 123 -82 231 -82 239 -2 10 51 34 173 81 96 37 297 113 445 170
149 56 430 164 625 239 l355 136 2 105 2 104 -28 -79 -27 -79 -53 -19 c-29
-11 -54 -18 -57 -16 -2 3 12 52 32 110 l35 106 50 18 c45 17 49 20 49 51 0 18
-3 33 -6 33 -7 0 -913 -346 -1140 -435 -91 -36 -170 -63 -175 -59 -11 6 27 35
421 317 744 532 815 584 818 605 4 28 -101 185 -133 200 -50 23 -88 15 -161
-36z m168 -67 c21 -28 38 -53 38 -57 0 -4 -30 2 -67 13 -38 11 -80 22 -95 26
-16 3 -28 9 -28 14 0 12 83 59 100 56 8 -1 31 -25 52 -52z m-125 -85 c51 -16
100 -30 108 -30 27 0 16 -14 -37 -48 l-51 -34 -96 28 c-135 39 -132 36 -75 78
27 19 51 36 53 36 2 0 46 -13 98 -30z m-147 -131 l101 -32 -52 -37 -52 -37
-105 33 c-57 18 -106 35 -109 38 -8 8 91 76 104 71 6 -2 57 -18 113 -36z
m-170 -123 l104 -33 -56 -37 -56 -38 -99 32 c-54 17 -104 33 -112 36 -17 5 74
73 99 73 8 0 62 -14 120 -33z m-195 -117 c55 -16 106 -32 114 -35 16 -5 -79
-74 -101 -74 -7 0 -60 15 -117 33 l-104 33 49 37 c27 20 51 37 54 37 3 0 51
-14 105 -31z m-146 -132 l104 -32 -55 -37 -55 -37 -108 34 c-59 19 -109 36
-112 38 -8 8 81 66 102 66 11 1 67 -14 124 -32z m777 -186 l-34 -104 -58 -24
c-31 -12 -59 -23 -60 -23 -1 0 14 51 35 112 l38 113 54 21 c30 11 55 18 56 15
2 -3 -12 -53 -31 -110z m-948 65 l103 -33 -54 -37 -55 -38 -111 34 c-61 18
-110 36 -108 40 5 16 83 67 102 68 11 0 66 -15 123 -34z m750 -139 l-39 -113
-50 -18 c-28 -9 -53 -16 -55 -14 -2 3 12 52 32 111 l35 106 52 20 c29 11 55
20 58 20 3 1 -12 -50 -33 -112z m-936 21 c60 -18 108 -36 108 -40 0 -4 -10
-13 -22 -19 -12 -6 -48 -31 -80 -55 l-59 -43 -57 25 c-31 14 -76 33 -99 42
-24 9 -43 19 -43 22 1 6 132 100 140 100 3 0 53 -14 112 -32z m742 -97 l-39
-110 -55 -20 c-30 -11 -55 -19 -57 -17 -2 1 14 52 34 112 l38 108 55 22 c30
11 57 20 59 18 2 -2 -14 -52 -35 -113z m-198 -78 l-36 -109 -51 -18 c-27 -10
-52 -16 -56 -13 -6 7 55 197 69 212 10 11 101 44 107 39 1 -1 -13 -52 -33
-111z m-193 -69 l-38 -109 -55 -22 c-30 -12 -56 -20 -57 -19 -2 2 14 52 34
111 l38 109 55 22 c30 12 56 21 58 20 1 -2 -15 -52 -35 -112z m-443 32 l165
-74 22 -58 c29 -74 29 -78 -4 -93 -42 -20 -371 -141 -381 -141 -5 0 -16 19
-25 43 -76 205 -118 329 -112 335 8 8 146 61 160 61 6 0 84 -33 175 -73z m269
-45 c-7 -23 -15 -41 -18 -41 -3 0 -14 14 -23 31 l-18 30 33 14 c17 7 33 12 35
10 2 -2 -2 -21 -9 -44z"/>
<path d="M23034 896 c-12 -31 0 -51 31 -51 27 0 30 3 30 30 0 25 -4 30 -28 33
-17 2 -29 -2 -33 -12z"/>
<path d="M23374 776 c-12 -31 0 -51 31 -51 27 0 30 3 30 30 0 25 -4 30 -28 33
-17 2 -29 -2 -33 -12z"/>
<path d="M23120 686 c-20 -25 -8 -61 22 -64 36 -4 53 26 32 56 -18 25 -37 28
-54 8z"/>
<path d="M22040 1537 c-53 -20 -533 -271 -570 -298 -42 -31 -77 -93 -98 -171
l-17 -63 -70 -34 c-38 -19 -211 -96 -383 -171 -172 -75 -329 -149 -349 -164
-19 -16 -44 -49 -55 -74 -33 -74 -22 -149 47 -322 88 -220 99 -240 136 -240
38 0 40 -11 -39 175 -85 200 -106 267 -99 315 7 57 29 86 89 116 45 23 50 24
44 7 -4 -10 -10 -40 -13 -68 -7 -63 30 -176 125 -390 l67 -150 38 -3 c20 -2
37 -1 37 3 0 3 -18 41 -39 83 -53 106 -136 304 -156 375 -33 116 0 177 131
237 129 60 117 62 149 -27 33 -94 139 -323 196 -424 23 -41 69 -113 102 -162
58 -84 62 -87 99 -87 l39 0 -65 94 c-36 52 -66 96 -66 98 0 2 20 3 44 3 30 0
54 7 75 23 36 26 29 35 91 -116 42 -101 43 -102 76 -102 l33 0 -24 63 c-101
265 -159 369 -355 632 l-100 135 31 16 c30 15 31 15 62 -15 18 -17 52 -46 77
-64 36 -26 55 -52 94 -131 54 -111 140 -207 213 -240 42 -18 42 -19 36 -61 -3
-23 1 -82 8 -131 7 -49 14 -115 14 -146 l0 -58 32 0 c39 0 49 25 39 95 l-7 44
68 36 c37 20 174 93 303 162 129 69 240 127 246 130 15 5 34 -49 34 -94 0 -26
-8 -42 -29 -61 -16 -15 -150 -90 -298 -167 l-268 -140 65 -3 c65 -3 68 -2 215
76 l150 79 3 -30 c4 -36 -16 -60 -83 -98 l-50 -29 64 0 c52 0 69 4 87 21 l22
21 11 -21 c9 -15 21 -21 46 -21 19 0 35 3 35 6 0 11 -23 50 -45 74 -12 14 -25
44 -28 67 -5 41 -5 41 47 68 75 41 103 71 116 125 11 46 9 56 -34 186 -26 75
-45 138 -44 138 125 65 178 273 122 475 -73 259 -311 460 -474 398z m143 -71
c42 -17 137 -93 137 -109 0 -6 -35 -30 -78 -52 -42 -22 -141 -73 -219 -114
l-142 -74 -63 59 c-35 32 -83 68 -106 78 l-42 19 97 52 c272 144 296 155 340
155 24 0 58 -6 76 -14z m248 -291 c20 -50 33 -105 36 -151 l6 -71 -129 -68
c-71 -38 -173 -92 -228 -122 -54 -30 -100 -52 -103 -49 -3 2 -9 39 -14 81 -9
72 -38 166 -72 232 l-15 29 131 71 c73 39 175 93 227 121 l95 51 17 -22 c10
-12 32 -58 49 -102z m-733 13 c62 -32 128 -109 173 -203 50 -103 69 -181 69
-275 0 -225 -118 -334 -278 -254 -165 82 -277 360 -231 576 21 99 57 149 126
174 45 16 80 12 141 -18z m-338 -313 c0 -25 -4 -45 -8 -45 -11 0 -67 59 -61
63 2 2 13 9 24 15 37 21 45 14 45 -33z m1094 -27 c-13 -43 -33 -76 -63 -101
-27 -22 -400 -227 -414 -227 -2 0 1 17 9 38 7 20 13 44 14 52 0 10 83 61 223
137 122 67 226 122 230 122 5 1 5 -9 1 -21z m-1293 -125 c29 -42 76 -108 105
-147 l53 -70 -37 -21 c-20 -11 -46 -37 -58 -58 l-21 -38 -56 133 c-31 73 -66
160 -77 193 -19 56 -20 61 -3 72 9 7 22 13 29 13 6 0 35 -35 65 -77z m1193
-168 c5 -18 -9 -29 -97 -77 -146 -82 -501 -268 -509 -268 -5 0 -8 34 -8 75 l0
75 38 0 c39 0 134 46 427 204 l120 64 11 -26 c6 -15 14 -36 18 -47z m-980
-138 c42 -55 57 -99 43 -128 -11 -20 -20 -24 -57 -24 -39 0 -47 4 -67 34 -32
47 -30 86 6 122 16 16 34 29 40 29 5 0 21 -15 35 -33z"/>
<path d="M21545 1050 c-78 -32 -108 -160 -66 -282 79 -229 308 -319 383 -151
42 96 4 243 -88 343 -80 86 -162 118 -229 90z m124 -74 c76 -40 145 -164 146
-263 0 -34 -3 -64 -7 -68 -30 -31 -154 79 -181 160 -19 55 -22 121 -7 159 11
30 12 31 49 12z m-117 -69 c-5 -100 23 -173 92 -241 28 -28 60 -57 71 -63 11
-7 2 -6 -20 3 -73 28 -131 99 -159 194 -20 66 -20 101 -2 145 8 19 16 35 18
35 2 0 2 -33 0 -73z"/>
<path d="M24705 860 c-11 -5 -211 -82 -445 -170 -234 -89 -465 -177 -515 -196
-49 -19 -166 -63 -260 -97 -148 -55 -170 -66 -173 -86 -2 -13 2 -27 8 -31 16
-10 28 -6 250 78 101 39 185 70 185 69 23 -47 93 -262 88 -267 -4 -4 -89 -38
-188 -75 -99 -37 -187 -71 -195 -76 -10 -5 16 -9 70 -9 l85 0 560 213 560 212
3 37 3 37 -60 -24 c-33 -14 -67 -25 -74 -25 -14 0 -111 245 -103 259 3 4 57
27 121 50 l115 43 0 34 c0 36 -3 38 -35 24z m-214 -318 c24 -65 38 -117 33
-122 -10 -9 -588 -230 -603 -230 -5 0 -16 19 -25 43 -58 158 -75 212 -69 218
5 5 109 46 233 93 124 47 259 99 300 115 67 26 76 27 82 12 4 -9 26 -67 49
-129z"/>
<path d="M17146 639 c-16 -5 -39 -18 -51 -29 -20 -19 -31 -21 -87 -16 -289 28
-378 27 -838 -9 -714 -57 -703 -55 -817 -139 -111 -81 -172 -202 -181 -353
l-5 -93 36 0 35 0 -5 40 c-7 53 13 153 44 213 49 98 148 179 248 206 54 14
965 91 1079 91 55 0 56 -1 76 -40 40 -78 54 -165 54 -343 l1 -168 30 3 30 3 0
195 c-1 185 -2 199 -27 268 l-26 73 66 -3 67 -3 22 -45 c36 -73 56 -216 50
-363 l-5 -127 29 0 c24 0 29 5 35 35 11 61 -2 335 -20 395 -8 30 -18 65 -22
78 -6 21 -4 22 68 22 44 0 81 -5 90 -12 26 -20 39 -84 44 -218 3 -69 10 -137
15 -151 21 -55 113 -67 156 -21 l25 27 -5 140 c-4 77 -10 157 -16 178 -9 36
-8 37 19 37 85 0 99 -32 109 -244 6 -135 7 -139 34 -162 41 -35 90 -32 129 7
l31 30 -7 142 c-3 78 -9 157 -12 175 -6 32 -6 32 32 32 22 0 45 -4 53 -9 20
-13 39 -112 47 -245 4 -67 11 -129 15 -138 5 -10 27 -23 50 -29 33 -10 45 -10
74 4 52 25 61 68 47 225 -7 70 -15 138 -18 151 -7 23 -6 23 37 16 24 -4 48
-11 53 -15 18 -17 36 -129 36 -228 0 -126 12 -157 69 -172 45 -12 96 2 111 30
13 24 13 227 0 304 -5 33 -8 61 -7 63 2 1 30 -1 62 -5 l59 -7 18 -48 c25 -66
40 -213 32 -308 l-7 -79 31 0 c30 0 31 2 38 57 9 71 -2 229 -20 308 -8 33 -13
62 -11 64 11 11 63 -15 92 -45 44 -47 53 -86 60 -246 l6 -138 28 0 c24 0 28 5
34 40 6 36 3 100 -11 222 l-6 47 54 -6 c29 -3 61 -13 71 -21 27 -24 47 -108
47 -199 l0 -84 33 3 32 3 3 75 3 75 82 -3 c98 -4 107 -11 107 -94 l0 -58 36 0
37 0 -7 41 -7 41 38 -7 c42 -8 68 -23 89 -54 11 -14 26 -21 50 -21 19 0 34 4
34 8 0 5 -13 27 -29 49 -31 42 -100 83 -142 83 -15 0 -37 13 -56 34 -35 36
-74 46 -183 46 l-58 0 -27 55 c-15 31 -38 63 -51 72 -14 9 -58 19 -99 23 -74
7 -76 8 -117 55 -23 26 -56 54 -74 61 -17 7 -87 16 -155 20 -120 6 -125 7
-156 36 -56 54 -176 58 -203 7 -17 -30 -58 -23 -101 16 -36 32 -44 35 -102 35
-55 0 -67 -3 -87 -25 -34 -36 -76 -33 -109 6 -44 52 -163 58 -203 9 -25 -31
-72 -26 -106 11 -31 35 -95 51 -146 38z m91 -74 c29 -20 52 -126 60 -269 5
-92 3 -113 -9 -124 -35 -28 -45 -6 -52 114 -6 99 -28 218 -51 277 -9 22 21 23
52 2z m307 -20 c20 -21 33 -71 46 -180 20 -176 10 -236 -34 -219 -9 3 -16 7
-16 8 -1 0 -5 64 -10 141 -8 123 -19 185 -45 248 -6 13 -2 17 18 17 14 0 33
-7 41 -15z m300 -18 c28 -21 47 -111 53 -260 l6 -137 -30 0 -30 0 -6 128 c-3
70 -13 152 -21 182 -9 30 -18 65 -22 78 -5 17 -2 22 13 22 11 0 27 -6 37 -13z
m310 -30 c23 -35 47 -195 44 -294 -3 -88 -3 -88 -30 -91 -28 -3 -28 -3 -28 60
0 105 -19 244 -39 298 l-19 50 29 0 c19 0 34 -8 43 -23z"/>
<path d="M24655 195 c-33 -13 -161 -62 -285 -109 l-225 -85 95 0 c94 0 97 1
295 77 200 77 200 77 203 110 4 38 -2 39 -83 7z"/>
</g>
</svg>
